<svg width="232px" height="48px" viewBox="0 0 232 48" version="1.1" xmlns="http://www.w3.org/2000/svg" xmlns:xlink="http://www.w3.org/1999/xlink">
    <title>Synergy</title>
    <desc>Synergy Logo</desc>
    <defs></defs>
    <rect id="bg" fill="#CDBA6F" x="0" y="0" width="232" height="48"></rect>
    <path d="M26.175,28.27 C26.1821072,28.8498226 26.2778819,29.4251452 26.459,29.976 C27.028,31.54 28.805,31.895 30.369,31.895 C31.72,31.895 33.71,31.468 33.71,29.478 C33.71,28.127 32.573,27.772 28.023,26.421 C23.829,25.212 19.066,24.075 19.066,18.743 C19.066,12.629 24.255,9.999 29.729,9.999 C35.487,9.999 40.534,12.199 40.748,18.599 L33.071,18.599 C33.217206,17.748746 32.8180994,16.8974516 32.071,16.466 C31.354738,15.9991595 30.5074342,15.7748011 29.654,15.826 C28.517,15.826 26.739,16.11 26.739,17.603 C26.881,19.522 30.649,19.878 34.417,20.944 C38.185,22.01 41.881,23.716 41.881,28.55 C41.881,35.45 35.554,37.65 29.654,37.65 C26.668,37.65 18.067,36.584 17.995,28.124 L26.17,28.124 L26.175,28.27 Z M52.336,27.417 L43.023,10.711 L52.051,10.711 L56.458,20.45 L61.079,10.711 L70.036,10.711 L60.511,27.417 L60.511,37.156 L52.336,37.156 L52.336,27.417 Z M72.88,10.711 L81.197,10.711 L88.875,24.858 L88.946,24.858 L88.946,10.711 L96.624,10.711 L96.624,37.156 L88.733,37.156 L80.633,22.725 L80.562,22.725 L80.562,37.156 L72.88,37.156 L72.88,10.711 Z M102.809,10.711 L124.638,10.711 L124.638,17.464 L110.918,17.464 L110.918,20.734 L123.43,20.734 L123.43,27.061 L110.913,27.061 L110.913,30.331 L125.06,30.331 L125.06,37.084 L102.738,37.084 L102.738,10.711 L102.809,10.711 Z M130.675,10.711 L146.175,10.711 C150.796,10.711 154.775,13.27 154.775,18.246 C154.775,21.018 153.495,23.862 150.794,24.857 C152.994,25.71 154.42,28.127 154.704,31.468 C154.846,32.748 154.846,35.947 155.628,37.155 L147.453,37.155 C147.067128,35.8372905 146.852037,34.475491 146.813,33.103 C146.6,30.615 146.386,27.985 143.113,27.985 L138.848,27.985 L138.848,37.227 L130.675,37.227 L130.675,10.711 Z M138.85,22.227 L143.115,22.227 C144.608,22.227 146.741,21.943 146.741,19.597 C146.741,17.962 145.817,16.967 142.689,16.967 L138.85,16.967 L138.85,22.227 Z M179.371,34.454 C177.519521,36.6840811 174.731785,37.9201559 171.836,37.795 C164.016,37.795 159.182,31.752 159.182,24.217 C159.182,14.122 166.291,10.141 172.191,10.141 C178.944,10.141 183.21,13.841 184.347,20.022 L176.527,20.022 C176.244666,18.1255982 174.605167,16.7290986 172.688,16.752 C167.072,16.752 167.288,22.652 167.288,24.43 C167.288,26.918 168.288,31.254 173.259,31.254 C175.178,31.254 177.098,30.254 177.453,28.339 L173.827,28.339 L173.827,22.654 L184.632,22.654 L184.632,37.227 L179.514,37.227 L179.371,34.454 Z M208.446,10.711 L214.347,10.711 L204.894,27.417 L204.894,37.157 L196.719,37.157 L196.719,27.418 L187.406,10.712 L192.806,10.712 L192.735,11.352 L192.664,11.779 L193.091,11.921 L193.162,11.921 L193.02,13.911 L192.949,14.338 L193.304,14.48 L193.659,14.622 L193.872,15.191 L194.014,15.76 L194.583,15.547 L197.995,14.196 L200.839,20.452 L204.039,13.628 L208.162,14.339 L208.731,14.41 L208.802,13.841 L208.873,13.341 L209.157,12.914 L209.37,12.701 L209.228,12.346 L208.446,10.711 Z" id="text" fill="#222222"></path>
    <polygon id="shirt" fill="#FFFFFF" points="200.926022 20 197 12 205 12"></polygon>
    <path d="M197.569,10.995 L199.062,11.851 L199.204,13.131 L194.37,15.046 L194.157,14.193 L193.517,13.98 L193.73,11.563 L193.588,11.563 L193.304,11.421 L193.517,9.573 L194.939,9.431 L197.569,10.995 Z M201.977,12.701 L201.973,12.918 C201.982641,12.9960717 201.956556,13.0743276 201.902,13.131 C201.902272,13.1499125 201.894879,13.1681302 201.881505,13.1815047 C201.86813,13.1948793 201.849912,13.2022722 201.831,13.202 C201.76,13.273 201.76,13.273 201.689,13.273 L199.983,13.415 L199.841,13.415 C199.841272,13.3960875 199.833879,13.3778698 199.820505,13.3644953 C199.80713,13.3511207 199.788912,13.3437278 199.77,13.344 L199.699,13.344 C199.680088,13.3442722 199.66187,13.3368793 199.648495,13.3235047 C199.635121,13.3101302 199.627728,13.2919125 199.628,13.273 C199.557,13.202 199.557,13.202 199.557,13.131 L199.557,12.776 C199.557,12.634 199.557,12.563 199.628,12.563 L199.699,12.492 L199.699,12.35 C199.691533,12.2961655 199.666587,12.2462747 199.628,12.208 L199.557,12.208 L199.557,12.137 L199.557,12.062 L199.557,11.92 L199.557,11.565 C199.557,11.494 199.628,11.423 199.699,11.352 C199.77,11.281 199.77,11.281 199.841,11.281 L201.547,11.139 L201.689,11.139 C201.688728,11.1579125 201.696121,11.1761302 201.709495,11.1895047 C201.72287,11.2028793 201.741088,11.2102722 201.76,11.21 L201.835,11.21 C201.853912,11.2097278 201.87213,11.2171207 201.885505,11.2304953 C201.898879,11.2438698 201.906272,11.2620875 201.906,11.281 C201.977,11.352 201.977,11.352 201.977,11.423 L201.977,11.778 C201.977,11.92 201.977,11.991 201.906,11.991 C201.887088,11.9907278 201.86887,11.9981207 201.855495,12.0114953 C201.842121,12.0248698 201.834728,12.0430875 201.835,12.062 L201.835,12.204 C201.842467,12.2578345 201.867413,12.3077253 201.906,12.346 L201.977,12.346 L201.977,12.417 L201.977,12.701 Z M208.019,9.715 L207.728,10.359 L208.728,12.559 L208.373,13.128 L208.302,13.768 L202.473,12.844 L202.331,11.351 L205.531,8.436 L207.948,7.867 L208.019,9.715 Z" id="bow-tie" fill="#222222"></path>
    <path d="M200.861865,14.618581 C201.096511,14.5957059 201.305274,14.7673805 201.328149,15.002027 C201.351024,15.2366735 201.179349,15.4454359 200.944703,15.468311 C200.710057,15.4911861 200.501294,15.3195115 200.478419,15.084865 C200.455544,14.8502185 200.627219,14.6414561 200.861865,14.618581 Z M200.943703,17.459311 C200.709057,17.4821861 200.500294,17.3105115 200.477419,17.075865 C200.454544,16.8412185 200.626219,16.6324561 200.860865,16.609581 C201.095511,16.5867059 201.304274,16.7583805 201.327149,16.993027 C201.350024,17.2276735 201.178349,17.4364359 200.943703,17.459311 Z" id="buttons" fill="#222222"></path>
</svg>